<svg xmlns="http://www.w3.org/2000/svg" xmlns:xlink="http://www.w3.org/1999/xlink" width="978" zoomAndPan="magnify" viewBox="0 0 733.5 362.999992" height="484" preserveAspectRatio="xMidYMid meet" version="1.0"><defs><g/><clipPath id="71a8ecac6b"><path d="M 0 0.125 L 733 0.125 L 733 362.875 L 0 362.875 Z M 0 0.125 " clip-rule="nonzero"/></clipPath><clipPath id="2bbfc622bd"><path d="M 472.824219 68.140625 L 491.394531 68.140625 L 491.394531 259.6875 L 472.824219 259.6875 Z M 472.824219 68.140625 " clip-rule="nonzero"/></clipPath><clipPath id="a304fa7c0b"><path d="M 127 156 L 152 156 L 152 188 L 127 188 Z M 127 156 " clip-rule="nonzero"/></clipPath><clipPath id="2306c937fc"><path d="M 127.304688 162.050781 L 141.839844 156.265625 L 151.816406 181.34375 L 137.28125 187.125 Z M 127.304688 162.050781 " clip-rule="nonzero"/></clipPath><clipPath id="6e2c1f0ca8"><path d="M 121 156 L 146 156 L 146 188 L 121 188 Z M 121 156 " clip-rule="nonzero"/></clipPath><clipPath id="02d83732f1"><path d="M 131.195312 156.28125 L 145.460938 162.023438 L 135.386719 187.058594 L 121.121094 181.320312 Z M 131.195312 156.28125 " clip-rule="nonzero"/></clipPath></defs><g clip-path="url(#71a8ecac6b)"><path fill="#ffffff" d="M 0 0.125 L 733 0.125 L 733 362.875 L 0 362.875 Z M 0 0.125 " fill-opacity="1" fill-rule="nonzero"/></g><g fill="#000000" fill-opacity="1"><g transform="translate(72.711293, 234.319217)"><g><path d="M 35.8125 0 L 35.8125 -2.46875 C 38.71875 -3.351562 40.707031 -5.242188 41.78125 -8.140625 C 42.851562 -11.046875 43.328125 -16.351562 43.203125 -24.0625 L 43.203125 -59.6875 L 14.59375 -111.59375 C 10.925781 -118.289062 7.703125 -122.835938 4.921875 -125.234375 C 2.148438 -127.640625 -0.25 -129.285156 -2.28125 -130.171875 L -2.28125 -132.625 L 27.65625 -132.625 L 27.65625 -130.171875 C 24.882812 -129.285156 23.9375 -127.640625 24.8125 -125.234375 C 25.695312 -122.835938 28.035156 -118.289062 31.828125 -111.59375 L 58.171875 -64.609375 L 84.6875 -111.59375 C 87.976562 -117.40625 89.625 -121.796875 89.625 -124.765625 C 89.625 -127.734375 87.789062 -129.535156 84.125 -130.171875 L 84.125 -132.625 L 106.671875 -132.625 L 106.671875 -130.171875 C 104.140625 -129.285156 101.359375 -127.640625 98.328125 -125.234375 C 95.296875 -122.835938 91.890625 -118.289062 88.109375 -111.59375 L 59.109375 -60.0625 L 59.109375 -24.0625 C 59.109375 -16.351562 59.644531 -11.046875 60.71875 -8.140625 C 61.789062 -5.242188 63.78125 -3.351562 66.6875 -2.46875 L 66.6875 0 Z M 35.8125 0 "/></g></g></g><g fill="#000000" fill-opacity="1"><g transform="translate(176.344087, 234.319217)"><g><path d="M 77.296875 1.890625 C 69.210938 1.890625 61.191406 0.535156 53.234375 -2.171875 C 45.273438 -4.890625 38.007812 -9.054688 31.4375 -14.671875 C 24.875 -20.296875 19.632812 -27.40625 15.71875 -36 C 11.8125 -44.59375 9.859375 -54.757812 9.859375 -66.5 C 9.859375 -79.507812 12.695312 -91.097656 18.375 -101.265625 C 24.0625 -111.429688 31.957031 -119.453125 42.0625 -125.328125 C 52.164062 -131.203125 63.910156 -134.140625 77.296875 -134.140625 C 85.253906 -134.140625 93.210938 -132.75 101.171875 -129.96875 C 109.128906 -127.195312 116.359375 -123 122.859375 -117.375 C 129.367188 -111.75 134.582031 -104.640625 138.5 -96.046875 C 142.414062 -87.460938 144.375 -77.363281 144.375 -65.75 C 144.375 -54 142.414062 -43.890625 138.5 -35.421875 C 134.582031 -26.960938 129.335938 -19.953125 122.765625 -14.390625 C 116.203125 -8.835938 108.972656 -4.734375 101.078125 -2.078125 C 93.179688 0.566406 85.253906 1.890625 77.296875 1.890625 Z M 25.015625 -77.5 C 25.390625 -68.019531 27.125 -58.828125 30.21875 -49.921875 C 33.3125 -41.015625 37.539062 -33.023438 42.90625 -25.953125 C 48.28125 -18.878906 54.566406 -13.257812 61.765625 -9.09375 C 68.960938 -4.925781 76.796875 -2.84375 85.265625 -2.84375 C 95.367188 -2.84375 103.765625 -5.050781 110.453125 -9.46875 C 117.148438 -13.894531 122.109375 -19.925781 125.328125 -27.5625 C 128.554688 -35.207031 129.976562 -43.765625 129.59375 -53.234375 C 129.21875 -63.085938 127.484375 -72.59375 124.390625 -81.75 C 121.296875 -90.914062 117.09375 -99.097656 111.78125 -106.296875 C 106.476562 -113.492188 100.226562 -119.207031 93.03125 -123.4375 C 85.832031 -127.664062 78 -129.78125 69.53125 -129.78125 C 59.9375 -129.78125 51.757812 -127.566406 45 -123.140625 C 38.238281 -118.722656 33.117188 -112.597656 29.640625 -104.765625 C 26.171875 -96.941406 24.628906 -87.851562 25.015625 -77.5 Z M 25.015625 -77.5 "/></g></g></g><g fill="#000000" fill-opacity="1"><g transform="translate(329.803998, 234.319217)"><g><path d="M 77.296875 1.890625 C 69.210938 1.890625 61.191406 0.535156 53.234375 -2.171875 C 45.273438 -4.890625 38.007812 -9.054688 31.4375 -14.671875 C 24.875 -20.296875 19.632812 -27.40625 15.71875 -36 C 11.8125 -44.59375 9.859375 -54.757812 9.859375 -66.5 C 9.859375 -79.507812 12.695312 -91.097656 18.375 -101.265625 C 24.0625 -111.429688 31.957031 -119.453125 42.0625 -125.328125 C 52.164062 -131.203125 63.910156 -134.140625 77.296875 -134.140625 C 85.253906 -134.140625 93.210938 -132.75 101.171875 -129.96875 C 109.128906 -127.195312 116.359375 -123 122.859375 -117.375 C 129.367188 -111.75 134.582031 -104.640625 138.5 -96.046875 C 142.414062 -87.460938 144.375 -77.363281 144.375 -65.75 C 144.375 -54 142.414062 -43.890625 138.5 -35.421875 C 134.582031 -26.960938 129.335938 -19.953125 122.765625 -14.390625 C 116.203125 -8.835938 108.972656 -4.734375 101.078125 -2.078125 C 93.179688 0.566406 85.253906 1.890625 77.296875 1.890625 Z M 25.015625 -77.5 C 25.390625 -68.019531 27.125 -58.828125 30.21875 -49.921875 C 33.3125 -41.015625 37.539062 -33.023438 42.90625 -25.953125 C 48.28125 -18.878906 54.566406 -13.257812 61.765625 -9.09375 C 68.960938 -4.925781 76.796875 -2.84375 85.265625 -2.84375 C 95.367188 -2.84375 103.765625 -5.050781 110.453125 -9.46875 C 117.148438 -13.894531 122.109375 -19.925781 125.328125 -27.5625 C 128.554688 -35.207031 129.976562 -43.765625 129.59375 -53.234375 C 129.21875 -63.085938 127.484375 -72.59375 124.390625 -81.75 C 121.296875 -90.914062 117.09375 -99.097656 111.78125 -106.296875 C 106.476562 -113.492188 100.226562 -119.207031 93.03125 -123.4375 C 85.832031 -127.664062 78 -129.78125 69.53125 -129.78125 C 59.9375 -129.78125 51.757812 -127.566406 45 -123.140625 C 38.238281 -118.722656 33.117188 -112.597656 29.640625 -104.765625 C 26.171875 -96.941406 24.628906 -87.851562 25.015625 -77.5 Z M 25.015625 -77.5 "/></g></g></g><g fill="#000000" fill-opacity="1"><g transform="translate(483.263924, 234.319217)"><g><path d="M 9.65625 0 L 9.65625 -2.46875 C 12.5625 -3.351562 14.550781 -5.242188 15.625 -8.140625 C 16.695312 -11.046875 17.234375 -16.351562 17.234375 -24.0625 L 17.234375 -108.5625 C 17.234375 -116.394531 16.695312 -121.734375 15.625 -124.578125 C 14.550781 -127.421875 12.5625 -129.285156 9.65625 -130.171875 L 9.65625 -132.625 L 40.359375 -132.625 L 40.359375 -130.171875 C 37.453125 -129.285156 35.460938 -127.421875 34.390625 -124.578125 C 33.316406 -121.734375 32.78125 -116.394531 32.78125 -108.5625 L 32.78125 -24.0625 C 32.78125 -16.351562 33.316406 -11.046875 34.390625 -8.140625 C 35.460938 -5.242188 37.453125 -3.351562 40.359375 -2.46875 L 40.359375 0 Z M 9.65625 0 "/></g></g></g><g fill="#000000" fill-opacity="1"><g transform="translate(532.712087, 234.319217)"><g><path d="M 109.703125 1.515625 L 20.46875 -114.625 L 20.46875 -31.640625 C 20.46875 -24.441406 20.972656 -18.882812 21.984375 -14.96875 C 22.992188 -11.050781 24.476562 -8.175781 26.4375 -6.34375 C 28.394531 -4.507812 30.757812 -3.21875 33.53125 -2.46875 L 33.53125 0 L 9.859375 0 L 9.859375 -2.46875 C 12.753906 -3.351562 14.738281 -5.242188 15.8125 -8.140625 C 16.894531 -11.046875 17.4375 -16.351562 17.4375 -24.0625 L 17.4375 -108.5625 C 17.4375 -116.394531 16.738281 -121.734375 15.34375 -124.578125 C 13.957031 -127.421875 11.367188 -129.285156 7.578125 -130.171875 L 7.578125 -132.625 L 26.140625 -132.625 L 108.9375 -25.390625 L 108.9375 -100.984375 C 108.9375 -108.179688 108.429688 -113.769531 107.421875 -117.75 C 106.410156 -121.726562 104.957031 -124.601562 103.0625 -126.375 C 101.175781 -128.144531 98.78125 -129.410156 95.875 -130.171875 L 95.875 -132.625 L 119.75 -132.625 L 119.75 -130.171875 C 116.84375 -129.285156 114.851562 -127.421875 113.78125 -124.578125 C 112.707031 -121.734375 112.171875 -116.394531 112.171875 -108.5625 L 112.171875 1.515625 Z M 109.703125 1.515625 "/></g></g></g><g clip-path="url(#2bbfc622bd)"><path fill="#ffffff" d="M 472.824219 68.140625 L 491.394531 68.140625 L 491.394531 259.652344 L 472.824219 259.652344 Z M 472.824219 68.140625 " fill-opacity="1" fill-rule="nonzero"/></g><g clip-path="url(#a304fa7c0b)"><g clip-path="url(#2306c937fc)"><path fill="#fafaf9" d="M 127.304688 162.050781 L 141.839844 156.265625 L 151.824219 181.363281 L 137.289062 187.144531 Z M 127.304688 162.050781 " fill-opacity="1" fill-rule="nonzero"/></g></g><g clip-path="url(#6e2c1f0ca8)"><g clip-path="url(#02d83732f1)"><path fill="#fafaf9" d="M 131.195312 156.28125 L 145.460938 162.023438 L 135.394531 187.042969 L 121.128906 181.304688 Z M 131.195312 156.28125 " fill-opacity="1" fill-rule="nonzero"/></g></g></svg>